<svg width="214" height="59" viewBox="0 0 214 59" fill="none" xmlns="http://www.w3.org/2000/svg">
<path d="M21.8521 44.7204C21.4047 47.1726 20.9293 49.2453 20.7336 51.3763C20.6777 52.0769 21.4047 52.8359 21.6843 53.4198C20.8175 54.4123 19.8947 55.4925 18.6924 56.8937C20.8734 56.8937 22.635 56.9813 24.3407 56.8645C25.571 56.7769 26.9131 53.7409 26.27 52.6316C24.8999 50.0918 23.4738 47.5521 21.8521 44.7204Z" fill="#FFCA42"/>
<path d="M50.6166 10.5637C51.6366 9.47031 52.3712 7.98125 52.6018 6.53933C52.6713 6.10498 52.6993 5.7466 52.6641 5.74283C52.6289 5.73907 51.5568 6.22553 50.2816 6.82395C48.2465 7.77891 42.0886 10.6224 32.6954 14.9447C29.2278 16.5403 27.9765 17.1758 26.6554 18.0121L24.318 20.3224C24.2097 20.4383 24.24 20.5726 24.4724 21.0066C24.6314 21.3036 24.7515 21.6036 24.7394 21.6732C24.7272 21.7429 24.6748 22.1699 24.623 22.6222C24.5222 23.502 24.2465 24.2018 23.9011 24.455C23.7199 24.5879 23.4879 25.3095 23.5573 25.5243L24.7834 29.6246C24.7193 28.5617 25.2254 26.4785 25.791 25.4764C26.8988 23.5132 28.438 22.0817 30.9582 20.6703C31.7744 20.2132 38.279 17.1683 44.781 14.1996C47.8261 12.8093 49.487 11.7744 50.6166 10.5637Z" fill="#FFCA42"/>
<path d="M36.9748 30.749C37.3133 31.5325 37.3467 33.6356 37.04 34.8585L38.2791 40.0908C40.6721 38.2519 41.979 35.3145 41.749 32.2916L41.6763 31.3357L42.0424 31.1769C45.8694 29.5172 47.4992 27.8054 48.5477 24.3441C48.7212 23.7713 48.8347 23.2955 48.7999 23.2869C48.7319 23.2702 48.5702 23.3433 43.33 25.7575L39.8791 27.3474L39.2018 26.6481C38.8293 26.2634 38.3543 25.831 38.1464 25.687C37.9385 25.5429 37.7766 25.3916 37.7867 25.3504C37.7968 25.3093 38.0197 25.1763 38.282 25.0549C38.5443 24.9335 40.3995 24.0779 42.4045 23.1537C44.4095 22.2295 46.5789 21.1542 47.2255 20.7644C49.6263 19.3167 50.9757 17.6702 51.651 15.3644C52.0788 13.9039 52.0691 13.8224 51.5027 14.1171C51.2629 14.2418 49.5411 15.0436 47.6765 15.8988C45.8119 16.754 42.0815 18.4712 39.3867 19.7148C33.4679 22.4464 33.3711 22.4908 32.2475 22.9954C30.407 23.8218 29.5535 25.0855 29.5535 25.0855L28.2865 26.7708L28.2233 27.0282L27.9008 30.671C28.5924 30.2643 31.6053 34.7673 33.2304 32.424C34.308 32.6395 33.6413 30.1064 34.4046 30.7213C35.6754 31.7455 35.801 30.1748 35.9783 31.7002C36.0093 31.9665 36.0721 32.1723 36.118 32.1575C36.2363 32.1192 36.6147 31.3614 36.7502 30.8912L36.8647 30.494L36.9748 30.749Z" fill="#FFCA42"/>
<path d="M24.3448 13.205C25.5471 17.6423 27.057 22.0212 28.539 26.3709C29.0423 26.4293 32.0622 27.9765 32.3698 28.0057C38.5493 29.6113 44.7568 31.2169 50.9364 32.91C51.6354 33.1144 52.4463 33.6399 52.8378 34.2529C55.4941 38.3399 58.0666 42.4852 60.6391 46.6014C61.1424 47.3896 61.5339 47.7399 62.4007 47.0101C62.9319 46.5722 63.7988 46.0759 64.33 46.2511C65.6722 46.6598 66.9025 47.4188 68.4404 48.1486C66.9584 49.0244 65.84 49.7542 64.6656 50.3964C64.358 50.5424 63.9106 50.7175 63.631 50.6007C61.45 49.6666 59.213 48.966 57.787 46.6306C56.1932 44.0032 54.2358 41.6094 52.3904 39.0113C52.2506 39.8287 52.0269 40.4417 52.0269 41.0256C52.0548 42.1641 51.8871 43.4778 52.3624 44.3827C53.2013 45.9591 54.5155 47.2436 55.5221 48.7324C55.8017 49.1411 55.9415 49.9001 55.7737 50.338C54.7392 53.0529 53.6487 54.8629 52.5302 57.5194C52.3904 57.8405 51.9709 58.2492 51.6913 58.2492C49.9577 58.3076 48.1961 58.2784 46.3227 58.2784C46.8819 56.9939 46.5184 55.4467 48.1961 55.038C49.3146 54.7753 50.7127 52.3231 50.2653 51.243C50.1534 50.9511 49.762 50.7175 49.4544 50.5424C47.2175 49.3163 45.0085 48.0318 42.7156 46.9225C41.6251 46.397 41.5412 45.6964 41.709 44.6163C41.8768 43.5653 41.8488 42.4852 41.9327 41.3175C36.2005 42.6312 30.748 43.8865 25.2955 45.0542C24.7642 45.1709 24.0092 44.9082 23.5898 44.5287C22.5552 43.6237 21.6604 42.5436 20.514 41.3759C20.1505 43.507 19.6752 45.2877 19.5913 47.0684C19.3955 50.9219 18.0813 54.3374 16.2359 57.5778C16.0401 57.8989 15.6487 58.2784 15.3411 58.2784C13.7752 58.3368 12.2094 58.3076 10.6156 58.3076C11.1189 55.0088 11.1189 55.0088 13.3558 54.6585C12.0975 50.1337 10.8392 45.638 9.52504 40.938C8.18288 41.9597 6.9246 42.8939 5.52652 43.974C5.52652 38.9237 5.6104 34.1653 5.49855 29.4069C5.44263 27.3926 5.63836 25.7871 7.76345 25.1448C8.04307 25.0572 8.26677 24.8529 8.51842 24.7069C6.81276 24.5026 5.33078 24.5902 3.87677 24.7361C3.12181 24.8237 2.7583 24.5026 2.45073 23.7728C1.77964 22.1088 1.02468 20.474 0.241749 18.8392C-0.149715 17.9926 -0.121753 17.5256 0.745061 16.9709C4.79951 14.4311 8.74211 11.8038 12.7686 9.23486C13.1601 9.00132 13.7473 9.00132 14.1947 9.08889C16.4316 9.58517 18.6685 10.1106 20.8495 10.7529C22.2476 11.1616 23.7855 11.1324 24.3448 13.205Z" fill="#FFCA42"/>
<path d="M39.5353 44.7204C36.4036 45.3334 33.4955 45.8589 30.5875 46.4136C31.0629 48.6906 32.405 49.8875 34.7259 50.3254C35.9841 50.5589 37.2424 50.8508 38.4448 51.3179C38.8083 51.4639 39.1438 52.2521 39.1438 52.7484C39.1438 53.449 39.6471 54.4123 38.5566 54.8794C37.0467 55.4925 36.5713 56.1055 36.0121 57.9155C37.6618 57.9155 39.2836 57.8863 40.9054 57.9155C41.7443 57.9447 41.8841 57.4192 41.968 56.7478C42.2476 54.7043 42.5552 52.6608 42.7509 50.6173C42.7788 50.2086 42.4713 49.7707 42.2755 49.362C42.2476 49.2744 42.1357 49.2161 42.0798 49.1869C40.458 48.2527 38.8083 47.2893 39.5353 44.7204Z" fill="#FFCA42"/>
<path d="M83.7233 17.2203V20.9305H93.1946V26.3402H83.7233V35.1869H78.0553V11.8106H94.1267V17.2203H83.7233Z" fill="white"/>
<path d="M115.109 16.8158L115.079 35.1846H109.411V33.2119C108.244 34.6459 106.577 35.617 104.244 35.617C99.576 35.617 95.9694 31.6793 95.9694 25.9964C95.9694 20.2832 99.6364 16.3757 104.206 16.3757C106.539 16.3757 108.274 17.3773 109.442 18.8795V16.8082H115.109V16.8158ZM109.442 26.004C109.442 23.4623 107.774 21.7931 105.569 21.7931C103.372 21.7931 101.705 23.4623 101.705 26.004C101.705 28.576 103.402 30.2149 105.569 30.2149C107.767 30.2073 109.442 28.576 109.442 26.004Z" fill="white"/>
<path d="M126.187 11.3779C126.187 13.2823 124.755 14.648 122.755 14.648C120.823 14.648 119.323 13.2823 119.323 11.3779C119.323 9.5114 120.823 8.13812 122.755 8.13812C124.748 8.13812 126.187 9.50384 126.187 11.3779ZM119.913 16.8179H125.581V35.1867H119.913V16.8179Z" fill="white"/>
<path d="M142.434 16.481V22.3232C142.07 22.2929 141.835 22.2549 141.297 22.2549C138.63 22.2549 136.062 23.0592 136.062 27.2322V35.1761H130.394V16.8149H136.062V19.6525C137.198 17.4143 139.062 16.3824 141.396 16.3824C141.827 16.3824 142.161 16.4127 142.434 16.481Z" fill="white"/>
<path d="M144.419 29.3748H150.155C150.39 30.3763 151.125 31.3475 153.754 31.3475C155.656 31.3475 156.254 30.8467 156.254 30.0805C156.254 29.3445 155.686 29.1775 152.557 28.5099C147.321 27.3718 145.184 25.9682 145.184 22.736C145.184 18.7603 148.351 16.4234 153.655 16.4234C158.823 16.4234 161.361 18.6616 161.922 22.1669H156.186C155.951 21.302 155.216 20.695 153.421 20.695C151.753 20.695 150.92 21.1958 150.92 22C150.92 22.6374 151.458 22.6981 153.655 23.1685C159.126 24.3673 162.089 25.475 162.089 29.2762C162.089 33.5175 158.391 35.6192 153.686 35.6192C148.715 35.6192 145.085 33.2519 144.419 29.3748Z" fill="white"/>
<path d="M184.388 26.003C184.388 31.6783 180.789 35.6237 176.114 35.6237C173.78 35.6237 172.113 34.6525 170.909 33.2185V42.1211H165.241V16.8149H170.909V18.8862C172.075 17.3839 173.81 16.3824 176.144 16.3824C180.721 16.3824 184.388 20.2898 184.388 26.003ZM178.652 26.003C178.652 23.4613 176.985 21.7921 174.788 21.7921C172.583 21.7921 170.916 23.4613 170.916 26.003C170.916 28.5751 172.583 30.214 174.788 30.214C176.947 30.2064 178.652 28.5751 178.652 26.003Z" fill="white"/>
<path d="M193.663 11.3779C193.663 13.2823 192.23 14.648 190.23 14.648C188.298 14.648 186.797 13.2823 186.797 11.3779C186.797 9.5114 188.298 8.13812 190.23 8.13812C192.222 8.13812 193.663 9.50384 193.663 11.3779ZM187.388 16.8179H193.056V35.1867H187.388V16.8179Z" fill="white"/>
<path d="M214 23.6965V35.1836H208.332V24.9636C208.332 22.9605 207.734 21.7921 205.43 21.7921C203.195 21.7921 202.058 22.8923 202.058 25.434V35.1836H196.391V16.8149H202.058V18.8862C203.392 17.2473 205.097 16.3824 207.362 16.3824C211.5 16.3824 214 19.22 214 23.6965Z" fill="white"/>
<path d="M82.55 50.4472C82.9617 50.5576 83.2856 50.759 83.5218 51.0513C83.758 51.337 83.8761 51.7008 83.8761 52.1424C83.8761 52.7335 83.6433 53.1881 83.1776 53.5064C82.7188 53.8247 82.0473 53.9838 81.1632 53.9838H77.7822V47.164H80.9608C81.7706 47.164 82.3948 47.3199 82.8335 47.6316C83.2789 47.9434 83.5016 48.3753 83.5016 48.9274C83.5016 49.2846 83.4138 49.5931 83.2384 49.8529C83.0697 50.1127 82.8402 50.3108 82.55 50.4472ZM78.7945 47.9531V50.1355H80.8697C81.3893 50.1355 81.7875 50.0445 82.0641 49.8627C82.3476 49.6743 82.4893 49.4015 82.4893 49.0443C82.4893 48.6871 82.3476 48.4175 82.0641 48.2357C81.7875 48.0473 81.3893 47.9531 80.8697 47.9531H78.7945ZM81.1227 53.1946C81.6964 53.1946 82.1283 53.1037 82.4184 52.9218C82.7086 52.74 82.8537 52.4542 82.8537 52.0645C82.8537 51.3046 82.2767 50.9246 81.1227 50.9246H78.7945V53.1946H81.1227Z" fill="white"/>
<path d="M86.9113 47.164H87.9236V53.1362H91.7601V53.9838H86.9113V47.164Z" fill="white"/>
<path d="M97.4597 54.0617C96.7444 54.0617 96.0999 53.9123 95.5263 53.6136C94.9527 53.3083 94.5005 52.8894 94.1698 52.3568C93.8459 51.8242 93.6839 51.2299 93.6839 50.5739C93.6839 49.9179 93.8459 49.3236 94.1698 48.791C94.5005 48.2584 94.9527 47.8427 95.5263 47.5439C96.0999 47.2387 96.7444 47.086 97.4597 47.086C98.1683 47.086 98.8094 47.2387 99.3831 47.5439C99.9567 47.8427 100.405 48.2584 100.729 48.791C101.053 49.3171 101.215 49.9114 101.215 50.5739C101.215 51.2364 101.053 51.8339 100.729 52.3665C100.405 52.8926 99.9567 53.3083 99.3831 53.6136C98.8094 53.9123 98.1683 54.0617 97.4597 54.0617ZM97.4597 53.1946C97.9794 53.1946 98.445 53.081 98.8567 52.8536C99.2751 52.6263 99.6024 52.3146 99.8386 51.9184C100.082 51.5157 100.203 51.0675 100.203 50.5739C100.203 50.0803 100.082 49.6353 99.8386 49.2391C99.6024 48.8364 99.2751 48.5214 98.8567 48.2941C98.445 48.0668 97.9794 47.9531 97.4597 47.9531C96.9401 47.9531 96.4677 48.0668 96.0425 48.2941C95.6241 48.5214 95.2935 48.8364 95.0505 49.2391C94.8143 49.6353 94.6962 50.0803 94.6962 50.5739C94.6962 51.0675 94.8143 51.5157 95.0505 51.9184C95.2935 52.3146 95.6241 52.6263 96.0425 52.8536C96.4677 53.081 96.9401 53.1946 97.4597 53.1946Z" fill="white"/>
<path d="M107.399 54.0617C106.69 54.0617 106.049 53.9123 105.475 53.6136C104.908 53.3083 104.463 52.8926 104.139 52.3665C103.815 51.8339 103.653 51.2364 103.653 50.5739C103.653 49.9114 103.815 49.3171 104.139 48.791C104.463 48.2584 104.912 47.8427 105.485 47.5439C106.059 47.2387 106.7 47.086 107.409 47.086C107.962 47.086 108.468 47.177 108.927 47.3588C109.386 47.5342 109.778 47.7972 110.101 48.148L109.443 48.7618C108.91 48.2227 108.246 47.9531 107.449 47.9531C106.923 47.9531 106.447 48.0668 106.022 48.2941C105.597 48.5214 105.263 48.8364 105.02 49.2391C104.784 49.6353 104.666 50.0803 104.666 50.5739C104.666 51.0675 104.784 51.5157 105.02 51.9184C105.263 52.3146 105.597 52.6263 106.022 52.8536C106.447 53.081 106.923 53.1946 107.449 53.1946C108.239 53.1946 108.904 52.9218 109.443 52.3763L110.101 52.99C109.778 53.3408 109.383 53.6071 108.917 53.7889C108.458 53.9708 107.952 54.0617 107.399 54.0617Z" fill="white"/>
<path d="M115.321 50.9538L114.026 52.2204V53.9838H113.013V47.164H114.026V50.9733L117.872 47.164H119.026L116 50.2329L119.219 53.9838H118.034L115.321 50.9538Z" fill="white"/>
<path d="M124.668 54.0617C123.96 54.0617 123.319 53.9123 122.745 53.6136C122.178 53.3083 121.733 52.8926 121.409 52.3665C121.085 51.8339 120.923 51.2364 120.923 50.5739C120.923 49.9114 121.085 49.3171 121.409 48.791C121.733 48.2584 122.181 47.8427 122.755 47.5439C123.329 47.2387 123.97 47.086 124.678 47.086C125.232 47.086 125.738 47.177 126.197 47.3588C126.656 47.5342 127.047 47.7972 127.371 48.148L126.713 48.7618C126.18 48.2227 125.515 47.9531 124.719 47.9531C124.192 47.9531 123.717 48.0668 123.292 48.2941C122.866 48.5214 122.532 48.8364 122.289 49.2391C122.053 49.6353 121.935 50.0803 121.935 50.5739C121.935 51.0675 122.053 51.5157 122.289 51.9184C122.532 52.3146 122.866 52.6263 123.292 52.8536C123.717 53.081 124.192 53.1946 124.719 53.1946C125.508 53.1946 126.173 52.9218 126.713 52.3763L127.371 52.99C127.047 53.3408 126.652 53.6071 126.187 53.7889C125.728 53.9708 125.222 54.0617 124.668 54.0617Z" fill="white"/>
<path d="M136.377 47.164V53.9838H135.365V50.9441H131.295V53.9838H130.283V47.164H131.295V50.0965H135.365V47.164H136.377Z" fill="white"/>
<path d="M144.48 52.2788H140.715L139.935 53.9838H138.893L142.101 47.164H143.104L146.323 53.9838H145.26L144.48 52.2788ZM144.126 51.4994L142.597 48.1577L141.069 51.4994H144.126Z" fill="white"/>
<path d="M148.847 47.164H149.86V53.9838H148.847V47.164Z" fill="white"/>
<path d="M159.543 47.164V53.9838H158.713L154.461 48.8982V53.9838H153.449V47.164H154.279L158.531 52.2496V47.164H159.543Z" fill="white"/>
<path d="M170.486 54.0617C169.778 54.0617 169.137 53.9123 168.563 53.6136C167.996 53.3083 167.551 52.8926 167.227 52.3665C166.903 51.8339 166.741 51.2364 166.741 50.5739C166.741 49.9114 166.903 49.3171 167.227 48.791C167.551 48.2584 167.999 47.8427 168.573 47.5439C169.147 47.2387 169.788 47.086 170.496 47.086C171.05 47.086 171.556 47.177 172.015 47.3588C172.474 47.5342 172.865 47.7972 173.189 48.148L172.531 48.7618C171.998 48.2227 171.333 47.9531 170.537 47.9531C170.011 47.9531 169.535 48.0668 169.11 48.2941C168.684 48.5214 168.35 48.8364 168.107 49.2391C167.871 49.6353 167.753 50.0803 167.753 50.5739C167.753 51.0675 167.871 51.5157 168.107 51.9184C168.35 52.3146 168.684 52.6263 169.11 52.8536C169.535 53.081 170.011 53.1946 170.537 53.1946C171.326 53.1946 171.991 52.9218 172.531 52.3763L173.189 52.99C172.865 53.3408 172.47 53.6071 172.005 53.7889C171.546 53.9708 171.04 54.0617 170.486 54.0617Z" fill="white"/>
<path d="M180.448 52.2788H176.682L175.903 53.9838H174.86L178.069 47.164H179.071L182.29 53.9838H181.227L180.448 52.2788ZM180.093 51.4994L178.565 48.1577L177.036 51.4994H180.093Z" fill="white"/>
<path d="M186.88 54.0617C186.347 54.0617 185.83 53.9838 185.331 53.8279C184.838 53.6655 184.45 53.4577 184.167 53.2044L184.542 52.4445C184.811 52.6783 185.156 52.8699 185.574 53.0193C185.999 53.1622 186.434 53.2336 186.88 53.2336C187.467 53.2336 187.906 53.1394 188.196 52.9511C188.486 52.7562 188.631 52.4997 188.631 52.1814C188.631 51.9476 188.55 51.7592 188.388 51.6163C188.233 51.4669 188.037 51.3533 187.801 51.2753C187.572 51.1974 187.244 51.1097 186.819 51.0123C186.286 50.8889 185.854 50.7655 185.523 50.6421C185.199 50.5187 184.919 50.3303 184.683 50.077C184.454 49.8172 184.339 49.4697 184.339 49.0345C184.339 48.6708 184.437 48.3428 184.633 48.0505C184.835 47.7583 185.139 47.5244 185.544 47.3491C185.949 47.1737 186.451 47.086 187.052 47.086C187.47 47.086 187.882 47.138 188.287 47.2419C188.692 47.3458 189.039 47.4952 189.33 47.6901L188.996 48.4695C188.699 48.2876 188.381 48.1512 188.044 48.0603C187.707 47.9629 187.376 47.9141 187.052 47.9141C186.478 47.9141 186.046 48.0148 185.756 48.2162C185.473 48.4175 185.331 48.6773 185.331 48.9956C185.331 49.2294 185.412 49.421 185.574 49.5704C185.736 49.7133 185.935 49.8269 186.171 49.9114C186.414 49.9893 186.742 50.0738 187.153 50.1647C187.686 50.2881 188.115 50.4115 188.439 50.5349C188.763 50.6583 189.039 50.8467 189.269 51.1C189.505 51.3533 189.623 51.6943 189.623 52.1229C189.623 52.4802 189.522 52.8082 189.319 53.1069C189.117 53.3992 188.81 53.633 188.398 53.8084C187.987 53.9773 187.48 54.0617 186.88 54.0617Z" fill="white"/>
<path d="M192.57 47.164H193.582V53.9838H192.57V47.164Z" fill="white"/>
<path d="M203.265 47.164V53.9838H202.435L198.184 48.8982V53.9838H197.171V47.164H198.001L202.253 52.2496V47.164H203.265Z" fill="white"/>
<path d="M210.053 54.0617C209.337 54.0617 208.693 53.9123 208.119 53.6136C207.546 53.3083 207.094 52.8894 206.763 52.3568C206.439 51.8242 206.277 51.2299 206.277 50.5739C206.277 49.9179 206.439 49.3236 206.763 48.791C207.094 48.2584 207.546 47.8427 208.119 47.5439C208.693 47.2387 209.337 47.086 210.053 47.086C210.761 47.086 211.402 47.2387 211.976 47.5439C212.55 47.8427 212.998 48.2584 213.322 48.791C213.646 49.3171 213.808 49.9114 213.808 50.5739C213.808 51.2364 213.646 51.8339 213.322 52.3665C212.998 52.8926 212.55 53.3083 211.976 53.6136C211.402 53.9123 210.761 54.0617 210.053 54.0617ZM210.053 53.1946C210.572 53.1946 211.038 53.081 211.45 52.8536C211.868 52.6263 212.195 52.3146 212.432 51.9184C212.675 51.5157 212.796 51.0675 212.796 50.5739C212.796 50.0803 212.675 49.6353 212.432 49.2391C212.195 48.8364 211.868 48.5214 211.45 48.2941C211.038 48.0668 210.572 47.9531 210.053 47.9531C209.533 47.9531 209.061 48.0668 208.636 48.2941C208.217 48.5214 207.886 48.8364 207.644 49.2391C207.407 49.6353 207.289 50.0803 207.289 50.5739C207.289 51.0675 207.407 51.5157 207.644 51.9184C207.886 52.3146 208.217 52.6263 208.636 52.8536C209.061 53.081 209.533 53.1946 210.053 53.1946Z" fill="white"/>
</svg>
